HIERARCHY
ROOT Hips
{
	OFFSET 0.000000 0.000000 0.000000
	CHANNELS 6 Xposition Yposition Zposition Zrotation Yrotation Xrotation 
	JOINT Spine1
	{
		OFFSET -0.013727 5.003763 -0.053727
		CHANNELS 3 Zrotation Yrotation Xrotation
		JOINT Spine2
		{
			OFFSET -0.000000 7.125302 -0.029825
			CHANNELS 3 Zrotation Yrotation Xrotation
			JOINT Chest
			{
				OFFSET -0.000001 7.550063 -0.815971
				CHANNELS 3 Zrotation Yrotation Xrotation
				JOINT Neck1
				{
					OFFSET -0.181677 26.311296 -0.553348
					CHANNELS 3 Zrotation Yrotation Xrotation
					JOINT Neck2
					{
						OFFSET -0.000003 7.709398 2.302585
						CHANNELS 3 Zrotation Yrotation Xrotation
						JOINT Head
						{
							OFFSET -0.000005 6.128912 1.953709
							CHANNELS 3 Zrotation Yrotation Xrotation
							JOINT HeadEnd
							{
								OFFSET 0.003598 16.065403 -1.835380
								CHANNELS 3 Zrotation Yrotation Xrotation
								End Site
								{
									OFFSET 0.000000 0.000000 0.000000
								}
							}
							JOINT Jaw
							{
								OFFSET 0.002637 0.475592 3.094941
								CHANNELS 3 Zrotation Yrotation Xrotation
								End Site
								{
									OFFSET 0.000000 0.000000 0.000000
								}
							}
							JOINT LeftEye
							{
								OFFSET 3.206381 5.380208 7.586883
								CHANNELS 3 Zrotation Yrotation Xrotation
								End Site
								{
									OFFSET 0.000000 0.000000 0.000000
								}
							}
							JOINT RightEye
							{
								OFFSET -3.222440 5.361867 7.558233
								CHANNELS 3 Zrotation Yrotation Xrotation
								End Site
								{
									OFFSET 0.000000 0.000000 0.000000
								}
							}
						}
					}
				}
				JOINT LeftShoulder
				{
					OFFSET 1.621651 23.237165 5.113413
					CHANNELS 3 Zrotation Yrotation Xrotation
					JOINT LeftArm
					{
						OFFSET 14.919845 -0.000001 -5.502326
						CHANNELS 3 Zrotation Yrotation Xrotation
						JOINT LeftForeArm
						{
							OFFSET 28.739309 0.000004 -0.002588
							CHANNELS 3 Zrotation Yrotation Xrotation
							JOINT LeftHand
							{
								OFFSET 27.093983 -0.000003 0.002609
								CHANNELS 3 Zrotation Yrotation Xrotation
								JOINT LeftHandThumb1
								{
									OFFSET 2.276480 -1.392046 3.191413
									CHANNELS 3 Zrotation Yrotation Xrotation
									JOINT LeftHandThumb2
									{
										OFFSET 4.012841 -1.828126 1.641655
										CHANNELS 3 Zrotation Yrotation Xrotation
										JOINT LeftHandThumb3
										{
											OFFSET 2.798517 0.000002 -0.000003
											CHANNELS 3 Zrotation Yrotation Xrotation
											JOINT LeftHandThumbEnd
											{
												OFFSET 3.180790 -0.000003 0.000002
												CHANNELS 3 Zrotation Yrotation Xrotation
												End Site
												{
													OFFSET 0.000000 0.000000 0.000000
												}
											}
										}
									}
								}
								JOINT LeftHandIndex1
								{
									OFFSET 3.247553 -0.531998 2.296169
									CHANNELS 3 Zrotation Yrotation Xrotation
									JOINT LeftHandIndex2
									{
										OFFSET 6.364580 0.012062 0.178600
										CHANNELS 3 Zrotation Yrotation Xrotation
										JOINT LeftHandIndex3
										{
											OFFSET 3.662366 0.000000 -0.000001
											CHANNELS 3 Zrotation Yrotation Xrotation
											JOINT LeftHandIndex4
											{
												OFFSET 2.329242 0.000002 0.000004
												CHANNELS 3 Zrotation Yrotation Xrotation
												JOINT LeftHandIndexEnd
												{
													OFFSET 2.759619 -0.180539 -0.113023
													CHANNELS 3 Zrotation Yrotation Xrotation
													End Site
													{
														OFFSET 0.000000 0.000000 0.000000
													}
												}
											}
										}
									}
								}
								JOINT LeftHandMiddle1
								{
									OFFSET 3.163499 0.240982 1.000332
									CHANNELS 3 Zrotation Yrotation Xrotation
									JOINT LeftHandMiddle2
									{
										OFFSET 6.190778 -0.259276 -1.002548
										CHANNELS 3 Zrotation Yrotation Xrotation
										JOINT LeftHandMiddle3
										{
											OFFSET 4.356523 -0.000006 0.000001
											CHANNELS 3 Zrotation Yrotation Xrotation
											JOINT LeftHandMiddle4
											{
												OFFSET 2.996875 -0.000007 0.000001
												CHANNELS 3 Zrotation Yrotation Xrotation
												JOINT LeftHandMiddleEnd
												{
													OFFSET 2.304294 -0.294571 -0.031740
													CHANNELS 3 Zrotation Yrotation Xrotation
													End Site
													{
														OFFSET 0.000000 0.000000 0.000000
													}
												}
											}
										}
									}
								}
								JOINT LeftHandRing1
								{
									OFFSET 2.882641 -0.053650 -0.322543
									CHANNELS 3 Zrotation Yrotation Xrotation
									JOINT LeftHandRing2
									{
										OFFSET 5.854541 -0.486204 -1.373841
										CHANNELS 3 Zrotation Yrotation Xrotation
										JOINT LeftHandRing3
										{
											OFFSET 4.350581 0.000001 0.000003
											CHANNELS 3 Zrotation Yrotation Xrotation
											JOINT LeftHandRing4
											{
												OFFSET 2.651324 0.000007 0.000004
												CHANNELS 3 Zrotation Yrotation Xrotation
												JOINT LeftHandRingEnd
												{
													OFFSET 1.936111 0.077685 -0.000070
													CHANNELS 3 Zrotation Yrotation Xrotation
													End Site
													{
														OFFSET 0.000000 0.000000 0.000000
													}
												}
											}
										}
									}
								}
								JOINT LeftHandPinky1
								{
									OFFSET 2.865499 -0.310004 -1.600378
									CHANNELS 3 Zrotation Yrotation Xrotation
									JOINT LeftHandPinky2
									{
										OFFSET 5.087853 -1.331141 -1.771231
										CHANNELS 3 Zrotation Yrotation Xrotation
										JOINT LeftHandPinky3
										{
											OFFSET 3.070975 0.000003 0.000001
											CHANNELS 3 Zrotation Yrotation Xrotation
											JOINT LeftHandPinky4
											{
												OFFSET 1.549667 0.000000 0.000001
												CHANNELS 3 Zrotation Yrotation Xrotation
												JOINT LeftHandPinkyEnd
												{
													OFFSET 1.944894 -0.157802 0.057219
													CHANNELS 3 Zrotation Yrotation Xrotation
													End Site
													{
														OFFSET 0.000000 0.000000 0.000000
													}
												}
											}
										}
									}
								}
							}
						}
					}
				}
				JOINT RightShoulder
				{
					OFFSET -1.380118 23.180309 5.214158
					CHANNELS 3 Zrotation Yrotation Xrotation
					JOINT RightArm
					{
						OFFSET -15.037197 0.000012 -5.545604
						CHANNELS 3 Zrotation Yrotation Xrotation
						JOINT RightForeArm
						{
							OFFSET -28.736639 0.000004 -0.002597
							CHANNELS 3 Zrotation Yrotation Xrotation
							JOINT RightHand
							{
								OFFSET -27.133617 -0.000000 0.002612
								CHANNELS 3 Zrotation Yrotation Xrotation
								JOINT RightHandThumb1
								{
									OFFSET -2.274036 -1.383990 3.163128
									CHANNELS 3 Zrotation Yrotation Xrotation
									JOINT RightHandThumb2
									{
										OFFSET -4.011429 -1.827468 1.640914
										CHANNELS 3 Zrotation Yrotation Xrotation
										JOINT RightHandThumb3
										{
											OFFSET -2.794935 -0.000003 -0.000003
											CHANNELS 3 Zrotation Yrotation Xrotation
											JOINT RightHandThumbEnd
											{
												OFFSET -3.183855 0.000003 0.000000
												CHANNELS 3 Zrotation Yrotation Xrotation
												End Site
												{
													OFFSET 0.000000 0.000000 0.000000
												}
											}
										}
									}
								}
								JOINT RightHandIndex1
								{
									OFFSET -3.253269 -0.520060 2.282866
									CHANNELS 3 Zrotation Yrotation Xrotation
									JOINT RightHandIndex2
									{
										OFFSET -6.341918 0.012473 0.178265
										CHANNELS 3 Zrotation Yrotation Xrotation
										JOINT RightHandIndex3
										{
											OFFSET -3.654875 -0.000009 -0.000001
											CHANNELS 3 Zrotation Yrotation Xrotation
											JOINT RightHandIndex4
											{
												OFFSET -2.327586 -0.000000 0.000000
												CHANNELS 3 Zrotation Yrotation Xrotation
												JOINT RightHandIndexEnd
												{
													OFFSET -2.761788 -0.180657 -0.113079
													CHANNELS 3 Zrotation Yrotation Xrotation
													End Site
													{
														OFFSET 0.000000 0.000000 0.000000
													}
												}
											}
										}
									}
								}
								JOINT RightHandMiddle1
								{
									OFFSET -3.168106 0.246593 1.001030
									CHANNELS 3 Zrotation Yrotation Xrotation
									JOINT RightHandMiddle2
									{
										OFFSET -6.180830 -0.258836 -1.000896
										CHANNELS 3 Zrotation Yrotation Xrotation
										JOINT RightHandMiddle3
										{
											OFFSET -4.348905 -0.000001 -0.000001
											CHANNELS 3 Zrotation Yrotation Xrotation
											JOINT RightHandMiddle4
											{
												OFFSET -3.000243 -0.000002 -0.000003
												CHANNELS 3 Zrotation Yrotation Xrotation
												JOINT RightHandMiddleEnd
												{
													OFFSET -2.302517 -0.294372 -0.031706
													CHANNELS 3 Zrotation Yrotation Xrotation
													End Site
													{
														OFFSET 0.000000 0.000000 0.000000
													}
												}
											}
										}
									}
								}
								JOINT RightHandRing1
								{
									OFFSET -2.885693 -0.067952 -0.308858
									CHANNELS 3 Zrotation Yrotation Xrotation
									JOINT RightHandRing2
									{
										OFFSET -5.854196 -0.486133 -1.373731
										CHANNELS 3 Zrotation Yrotation Xrotation
										JOINT RightHandRing3
										{
											OFFSET -4.338814 -0.000003 -0.000000
											CHANNELS 3 Zrotation Yrotation Xrotation
											JOINT RightHandRing4
											{
												OFFSET -2.654906 -0.000005 0.000003
												CHANNELS 3 Zrotation Yrotation Xrotation
												JOINT RightHandRingEnd
												{
													OFFSET -1.933569 0.077523 -0.000052
													CHANNELS 3 Zrotation Yrotation Xrotation
													End Site
													{
														OFFSET 0.000000 0.000000 0.000000
													}
												}
											}
										}
									}
								}
								JOINT RightHandPinky1
								{
									OFFSET -2.866428 -0.342799 -1.584145
									CHANNELS 3 Zrotation Yrotation Xrotation
									JOINT RightHandPinky2
									{
										OFFSET -5.091370 -1.332053 -1.772385
										CHANNELS 3 Zrotation Yrotation Xrotation
										JOINT RightHandPinky3
										{
											OFFSET -3.062667 -0.000007 -0.000000
											CHANNELS 3 Zrotation Yrotation Xrotation
											JOINT RightHandPinky4
											{
												OFFSET -1.546526 0.000005 -0.000003
												CHANNELS 3 Zrotation Yrotation Xrotation
												JOINT RightHandPinkyEnd
												{
													OFFSET -1.945122 -0.157721 0.057211
													CHANNELS 3 Zrotation Yrotation Xrotation
													End Site
													{
														OFFSET 0.000000 0.000000 0.000000
													}
												}
											}
										}
									}
								}
							}
						}
					}
				}
			}
		}
	}
	JOINT LeftLeg
	{
		OFFSET 10.043214 -8.434525 2.595655
		CHANNELS 3 Zrotation Yrotation Xrotation
		JOINT LeftShin
		{
			OFFSET -0.000002 -43.221752 -0.802913
			CHANNELS 3 Zrotation Yrotation Xrotation
			JOINT LeftFoot
			{
				OFFSET 0.000001 -42.155094 -3.481522
				CHANNELS 3 Zrotation Yrotation Xrotation
				JOINT LeftToeBase
				{
					OFFSET 0.000000 -5.059474 13.231529
					CHANNELS 3 Zrotation Yrotation Xrotation
					JOINT LeftToeEnd
					{
						OFFSET -0.009607 -1.647615 6.513017
						CHANNELS 3 Zrotation Yrotation Xrotation
						End Site
						{
							OFFSET 0.000000 0.000000 0.000000
						}
					}
				}
			}
		}
	}
	JOINT RightLeg
	{
		OFFSET -10.047277 -8.295259 2.620317
		CHANNELS 3 Zrotation Yrotation Xrotation
		JOINT RightShin
		{
			OFFSET 0.000000 -43.362209 -0.805555
			CHANNELS 3 Zrotation Yrotation Xrotation
			JOINT RightFoot
			{
				OFFSET 0.000002 -42.117393 -3.478398
				CHANNELS 3 Zrotation Yrotation Xrotation
				JOINT RightToeBase
				{
					OFFSET -0.000001 -5.079609 13.284196
					CHANNELS 3 Zrotation Yrotation Xrotation
					JOINT RightToeEnd
					{
						OFFSET 0.009532 -1.634383 6.460591
						CHANNELS 3 Zrotation Yrotation Xrotation
						End Site
						{
							OFFSET 0.000000 0.000000 0.000000
						}
					}
				}
			}
		}
	}
}
MOTION
Frames: 4
Frame Time: 0.033333
-52.238167 87.687378 57.757874 4.888167 -2.098943 -6.150220 -3.637753 -0.152958 0.492797 -1.563624 -1.873166 -4.448116 -5.525815 -3.724918 5.134706 4.900645 0.170960 10.822835 -0.731346 -1.088020 -3.837958 2.199501 -2.049098 -4.923628 0.000077 -0.000022 0.000006 -0.008649 0.150241 -0.036345 0.719870 -3.566666 -10.740020 -0.750232 3.867530 -10.774004 -9.530139 -20.703924 7.550902 -49.793961 -47.613983 -7.312582 179.219040 -58.014977 -179.227814 4.824540 1.609128 -17.693159 -5.882099 9.861279 0.702590 -10.936858 -0.360575 7.156197 0.000001 8.774815 -0.000001 -15.995812 18.225243 6.015152 -1.844032 2.498504 -2.507275 -10.163589 4.678941 4.621103 -20.975994 -0.000005 -0.000000 -21.226255 2.451690 -3.593996 -0.000000 -0.000005 0.000000 -1.362679 2.240796 -0.746322 -21.334894 0.584908 3.008320 -13.821198 -0.000003 0.000003 -23.887133 -0.249082 -0.839480 -60.484203 2.230405 -1.841265 -0.294024 1.679686 0.833255 -14.218192 0.093213 1.300577 -34.211998 -0.287568 0.967167 -20.033180 0.964534 1.212842 -0.000000 0.000000 0.000000 -3.440385 0.788232 0.501654 -15.928169 -3.167307 2.999703 -6.338814 -0.000002 0.000001 -18.123415 3.648175 -4.905663 -0.000005 0.000002 -0.000002 16.207012 18.204506 8.136498 42.997852 36.486725 -20.146585 -179.631149 59.379395 -179.344345 2.433512 4.664059 -5.637921 2.243540 -5.255032 -3.180155 14.282878 -0.826593 6.952495 -0.000004 -12.690590 0.000001 15.643932 -17.744381 2.890755 1.665665 -1.955920 -2.878296 4.727794 -4.170583 4.993918 11.020513 0.000003 -0.000001 12.109033 -3.735709 -2.866779 0.000001 -0.000000 0.000001 1.291984 -1.928548 -1.498088 14.800114 0.567469 3.865604 14.242553 -1.341734 -6.660648 19.631939 0.143927 -0.648241 49.309017 -0.779610 -6.265384 0.353027 -1.511150 -0.031940 20.222771 3.684308 2.316628 18.787245 0.000006 0.000000 10.751610 -0.479867 1.397904 0.000001 0.000000 0.000000 3.273804 0.305947 -0.580110 21.486790 11.830365 2.266131 8.162916 0.000002 0.000000 18.399050 -3.798978 -4.940567 0.000003 0.000000 -0.000001 5.400311 6.986064 3.447268 -0.048454 -1.145195 45.316360 -16.614918 7.703480 -32.037136 1.705144 -2.020611 -2.130932 0.000000 0.000000 0.000002 -17.735983 8.372955 -33.656216 0.355832 0.522730 55.537437 15.142757 -2.057431 -17.081343 -1.447381 0.952428 -0.196694 0.000000 -0.000000 -0.000001 
-52.448643 87.716301 57.842667 4.953464 -1.890849 -6.107370 -3.623006 -0.142672 0.410322 -1.548203 -1.845484 -4.478925 -5.479112 -3.677045 5.147511 4.753869 0.207132 10.788286 -0.749852 -1.084396 -3.844896 2.193290 -2.101759 -4.794551 0.000077 -0.000022 0.000006 -0.006557 0.159838 -0.038830 0.725245 -3.558599 -10.747419 -0.750383 3.874742 -10.775909 -9.572082 -20.619623 7.609677 -49.776150 -47.571262 -7.253873 179.340378 -58.024334 -179.260742 4.846736 1.440759 -17.407080 -5.882102 9.861277 0.702588 -10.936859 -0.360573 7.156196 0.000001 8.774811 0.000000 -15.994126 18.233898 6.047192 -1.844032 2.498502 -2.507275 -10.163589 4.678940 4.621105 -20.975996 -0.000002 -0.000000 -21.226254 2.451690 -3.593993 -0.000000 -0.000006 0.000000 -1.362679 2.240796 -0.746326 -21.334892 0.584909 3.008319 -13.821197 -0.000002 0.000001 -23.887133 -0.249080 -0.839480 -60.545498 2.254541 -1.834278 -0.294024 1.679686 0.833255 -14.218194 0.093214 1.300579 -34.212006 -0.287565 0.967169 -20.033176 0.964535 1.212841 -0.000000 0.000000 0.000000 -3.440386 0.788233 0.501655 -15.928167 -3.167306 2.999702 -6.338817 -0.000001 0.000001 -18.123413 3.648173 -4.905662 -0.000006 0.000001 -0.000002 16.172037 18.195217 8.189607 42.781178 36.445942 -20.383129 -179.679016 59.550598 -179.366745 2.557293 4.803017 -5.398543 2.243538 -5.255032 -3.180155 14.282878 -0.826596 6.952495 -0.000001 -12.690590 0.000002 15.716077 -17.748247 2.883072 1.665665 -1.955920 -2.878297 4.727792 -4.170584 4.993918 11.020513 0.000004 -0.000001 12.109030 -3.735708 -2.866780 0.000001 -0.000000 0.000000 1.291984 -1.928548 -1.498088 14.800109 0.567469 3.865602 14.242551 -1.341734 -6.660647 19.631939 0.143926 -0.648244 49.336563 -0.780326 -6.268019 0.353030 -1.511149 -0.031939 20.222771 3.684306 2.316628 18.787245 0.000004 -0.000000 10.751610 -0.479868 1.397903 -0.000000 0.000000 0.000000 3.273805 0.305947 -0.580110 21.486790 11.830362 2.266130 8.162919 0.000001 -0.000000 18.399050 -3.798980 -4.940566 0.000003 0.000000 -0.000001 5.435809 6.760271 3.583313 -0.040892 -1.143397 44.907654 -16.688747 7.588511 -32.056549 1.704209 -2.022471 -2.041121 -0.000000 -0.000002 0.000001 -17.668062 8.218896 -33.573704 0.364185 0.525453 55.604446 15.051772 -2.140813 -17.283657 -1.447370 0.955950 -0.221230 0.000000 -0.000000 -0.000001 
-52.608604 87.754753 57.948772 5.001257 -1.691271 -6.067162 -3.614711 -0.155421 0.324481 -1.532166 -1.810221 -4.506868 -5.423365 -3.632168 5.165550 4.620092 0.235919 10.764253 -0.752443 -1.104571 -3.848401 2.181083 -2.148794 -4.675990 0.000077 -0.000023 0.000006 -0.004563 0.163896 -0.040234 0.727247 -3.537470 -10.745594 -0.749017 3.881316 -10.775361 -9.618651 -20.527107 7.656307 -49.761757 -47.522480 -7.165593 179.426041 -58.009682 -179.315918 4.866995 1.324094 -17.079229 -5.882101 9.861278 0.702588 -10.936859 -0.360576 7.156198 0.000002 8.774814 -0.000002 -16.014900 18.230726 6.052046 -1.844032 2.498503 -2.507275 -10.163590 4.678938 4.621103 -20.975996 -0.000005 0.000002 -21.226255 2.451691 -3.593991 0.000000 -0.000006 -0.000000 -1.362680 2.240796 -0.746325 -21.334890 0.584907 3.008320 -13.821197 -0.000003 0.000004 -23.887133 -0.249078 -0.839478 -60.609177 2.292883 -1.836652 -0.294023 1.679686 0.833255 -14.218194 0.093213 1.300581 -34.211998 -0.287565 0.967174 -20.033178 0.964534 1.212844 -0.000000 0.000000 0.000000 -3.440385 0.788233 0.501654 -15.928167 -3.167308 2.999704 -6.338819 -0.000002 0.000001 -18.123411 3.648175 -4.905660 -0.000004 0.000001 -0.000001 16.156153 18.165991 8.272053 42.578720 36.410202 -20.561811 -179.656265 59.672478 -179.352921 2.646630 4.873160 -5.293447 2.243541 -5.255033 -3.180155 14.282878 -0.826593 6.952495 0.000000 -12.690590 -0.000001 15.768970 -17.742899 2.874996 1.665665 -1.955921 -2.878296 4.727794 -4.170584 4.993917 11.020513 0.000003 -0.000001 12.109033 -3.735710 -2.866780 0.000001 0.000001 0.000001 1.291984 -1.928548 -1.498088 14.800114 0.567467 3.865602 14.242554 -1.341735 -6.660649 19.631941 0.143925 -0.648243 49.364799 -0.780770 -6.256699 0.353030 -1.511149 -0.031940 20.222771 3.684306 2.316628 18.787247 0.000005 -0.000001 10.751612 -0.479867 1.397903 -0.000001 -0.000000 0.000000 3.273805 0.305947 -0.580110 21.486794 11.830364 2.266132 8.162916 0.000002 -0.000001 18.399054 -3.798979 -4.940568 0.000003 0.000000 -0.000001 5.441643 6.518259 3.779740 -0.027879 -1.126744 44.399601 -16.741875 7.521234 -32.153332 1.705761 -2.051156 -2.000441 -0.000000 0.000000 0.000001 -17.615433 8.052467 -33.441002 0.379005 0.525325 55.603455 14.995215 -2.197182 -17.548157 -1.447387 0.952096 -0.272729 0.000000 0.000000 -0.000001 
-52.738392 87.791695 58.025955 5.058716 -1.525764 -6.036167 -3.606465 -0.134529 0.243039 -1.532213 -1.815653 -4.550688 -5.400158 -3.580834 5.193116 4.516758 0.286618 10.752111 -0.759312 -1.093200 -3.846923 2.189751 -2.243720 -4.586234 0.000077 -0.000023 0.000006 -0.001946 0.177577 -0.040764 0.729492 -3.532740 -10.755553 -0.746304 3.892574 -10.779490 -9.682445 -20.426775 7.696988 -49.764706 -47.492229 -7.013376 179.445389 -58.009094 -179.282761 4.826815 1.218107 -16.861744 -5.882101 9.861278 0.702590 -10.936860 -0.360574 7.156197 0.000001 8.774813 -0.000002 -16.042097 18.243071 6.060309 -1.844031 2.498501 -2.507274 -10.163589 4.678939 4.621102 -20.975994 -0.000001 0.000002 -21.226254 2.451693 -3.593994 -0.000000 -0.000007 0.000001 -1.362679 2.240795 -0.746323 -21.334887 0.584909 3.008320 -13.821197 0.000000 0.000002 -23.887133 -0.249076 -0.839481 -60.673195 2.317041 -1.837094 -0.294026 1.679686 0.833255 -14.218190 0.093214 1.300581 -34.211998 -0.287562 0.967169 -20.033176 0.964536 1.212842 -0.000000 0.000001 -0.000000 -3.440385 0.788233 0.501658 -15.928165 -3.167305 2.999702 -6.338815 0.000000 0.000001 -18.123415 3.648177 -4.905662 -0.000006 0.000002 -0.000001 16.199795 18.152853 8.368962 42.362865 36.402531 -20.719013 -179.616180 59.779861 -179.336884 2.717219 4.920424 -5.249968 2.243540 -5.255031 -3.180155 14.282877 -0.826594 6.952496 -0.000000 -12.690590 0.000001 15.808830 -17.733334 2.874714 1.665665 -1.955919 -2.878297 4.727793 -4.170583 4.993918 11.020514 0.000002 -0.000000 12.109033 -3.735710 -2.866779 0.000000 -0.000000 0.000001 1.291982 -1.928547 -1.498088 14.800113 0.567467 3.865602 14.242553 -1.341734 -6.660647 19.631939 0.143925 -0.648244 49.377838 -0.778040 -6.241816 0.353030 -1.511149 -0.031940 20.222767 3.684304 2.316627 18.787247 0.000004 -0.000001 10.751612 -0.479868 1.397904 -0.000001 0.000000 0.000000 3.273805 0.305947 -0.580110 21.486790 11.830360 2.266130 8.162916 0.000001 -0.000000 18.399052 -3.798979 -4.940567 0.000003 0.000000 -0.000001 5.417033 6.315975 3.926628 -0.021918 -1.128914 44.001167 -16.788080 7.440846 -32.190086 1.704137 -2.056041 -1.954296 0.000000 -0.000000 0.000001 -17.583883 7.939465 -33.339649 0.371551 0.538848 55.607590 14.993323 -2.249372 -17.697081 -1.447435 0.951108 -0.309886 0.000000 0.000000 -0.000001 
